HIERARCHY
ROOT Hips
{
  OFFSET -102.467 93.6631 130.069
  CHANNELS 6 Xposition Yposition Zposition Zrotation Xrotation Yrotation
  JOINT LeftUpLeg
  {
    OFFSET 8.64259 1.95398 -2.38835
    CHANNELS 3 Zrotation Xrotation Yrotation
    JOINT LeftLeg
    {
      OFFSET 43.7702 0 0
      CHANNELS 3 Zrotation Xrotation Yrotation
      JOINT LeftFoot
      {
        OFFSET 40.6238 0 0
        CHANNELS 3 Zrotation Xrotation Yrotation
        JOINT LeftToeBase
        {
          OFFSET 12.7242 0 0
          CHANNELS 3 Zrotation Xrotation Yrotation
          End Site
          {
            OFFSET 0 0 0
          }
        }
      }
    }
  }
  JOINT RightUpLeg
  {
    OFFSET -8.2249 1.95398 -2.59336
    CHANNELS 3 Zrotation Xrotation Yrotation
    JOINT RightLeg
    {
      OFFSET 43.5653 0 0
      CHANNELS 3 Zrotation Xrotation Yrotation
      JOINT RightFoot
      {
        OFFSET 40.6238 0 0
        CHANNELS 3 Zrotation Xrotation Yrotation
        JOINT RightToeBase
        {
          OFFSET 12.7242 0 0
          CHANNELS 3 Zrotation Xrotation Yrotation
          End Site
          {
            OFFSET 0 0 0
          }
        }
      }
    }
  }
  JOINT Spine
  {
    OFFSET 0.165834 0.87714 6.61349
    CHANNELS 3 Zrotation Xrotation Yrotation
    JOINT Spine1
    {
      OFFSET 7.38963 1.71661e-005 0
      CHANNELS 3 Zrotation Xrotation Yrotation
      JOINT Spine2
      {
        OFFSET 11.9445 1.14441e-005 0
        CHANNELS 3 Zrotation Xrotation Yrotation
        JOINT Spine3
        {
          OFFSET 14.7254 4.19617e-005 0
          CHANNELS 3 Zrotation Xrotation Yrotation
          JOINT Spine4
          {
            OFFSET 10.9679 0 0
            CHANNELS 3 Zrotation Xrotation Yrotation
            JOINT RightShoulder
            {
              OFFSET 2.46616 -1.6653 3.69651
              CHANNELS 3 Zrotation Xrotation Yrotation
              JOINT RightArm
              {
                OFFSET 13.0012 0 0
                CHANNELS 3 Zrotation Xrotation Yrotation
                JOINT RightForeArm
                {
                  OFFSET 28.7848 1.52588e-005 0
                  CHANNELS 3 Zrotation Xrotation Yrotation
                  JOINT RightHand
                  {
                    OFFSET 26.5688 1.52588e-005 0
                    CHANNELS 3 Zrotation Xrotation Yrotation
                    End Site
                    {
                      OFFSET 0 0 0
                    }
                  }
                }
              }
            }
            JOINT LeftShoulder
            {
              OFFSET 2.38034 -1.29275 -3.7523
              CHANNELS 3 Zrotation Xrotation Yrotation
              JOINT LeftArm
              {
                OFFSET 16.3182 6.10351e-005 0
                CHANNELS 3 Zrotation Xrotation Yrotation
                JOINT LeftForeArm
                {
                  OFFSET 27.0901 0 0
                  CHANNELS 3 Zrotation Xrotation Yrotation
                  JOINT LeftHand
                  {
                    OFFSET 24.5451 1.52588e-005 0
                    CHANNELS 3 Zrotation Xrotation Yrotation
                    End Site
                    {
                      OFFSET 0 0 0
                    }
                  }
                }
              }
            }
            JOINT Neck
            {
              OFFSET 5.0226 -0.0266342 0
              CHANNELS 3 Zrotation Xrotation Yrotation
              JOINT Head
              {
                OFFSET 6.69363 2.86102e-005 0
                CHANNELS 3 Zrotation Xrotation Yrotation
                End Site
                {
                  OFFSET 0 0 0
                }
              }
            }
          }
        }
      }
    }
  }
}
MOTION
Frames:	15
Frame Time:	0.0416667
-98.6807 85.2239 70.8956 107.938 53.2344 79.4008 179.277 0.921486 91.8778 -79.2456 5.97842 5.31784 52.4606 -1.73987 -1.15488 45.7626 -1.73814 1.18591 175.786 35.8234 95.7248 -54.2678 -24.1675 1.8775 59.6128 -2.16 -5.96195 34.861 -0.00342532 6.6452 -0.598017 8.69695 -91.3555 9.45294 -1.80238 -2.55138 -2.2191 -1.91288 -2.46964 -24.7378 -0.95266 -2.97477 -4.7251 -0.952631 -2.97476 100.551 -45.7518 -84.8245 25.3467 -14.0483 0.688329 3.12125 8.1441 -30.0545 -9.92146 0.0947822 -6.59319 -84.7256 -55.0375 87.0105 -16.2692 24.9869 -9.29649 5.84652 -0.430285 -54.4709 -3.96251 -0.025981 -9.01805 39.1215 3.8442 4.48637 -29.6363 1.12093 1.24923 
-86.5519 87.4917 59.1041 106.274 50.6071 79.455 178.798 22.1376 89.1563 -94.1115 8.87318 3.50381 54.7342 1.00153 2.1358 44.9274 -1.89403 0.0347003 175.896 25.9348 96.96 -59.3006 -24.5221 1.01315 68.2618 -10.3336 -9.49664 41.2519 -1.134 6.61705 0.00328476 8.47242 -91.4484 9.91391 -0.651004 -2.82534 -1.75982 -0.774674 -2.79399 -24.2708 0.227865 -2.89034 -4.25812 0.227849 -2.89035 99.1016 -44.8023 -87.2703 23.9291 -26.3866 -11.3821 -2.3556 3.02926 -40.3021 -8.51514 0.0456043 -6.14548 -83.1764 -54.6719 89.1934 -8.86867 15.0388 -5.32154 4.59903 -2.49733 -55.7906 -0.803521 -0.161753 -9.435 35.1932 4.08754 7.37224 -29.1301 0.300256 0.93971 
-73.9975 95.6861 47.8134 106.919 52.2084 73.1657 -179.272 35.3758 82.7297 -85.8729 5.94362 2.44915 57.0623 0.718712 -0.882419 43.9447 -1.41823 1.75042 177.152 7.62637 91.322 -43.8727 -18.9316 -1.08647 64.2118 -0.247173 4.08686 31.4973 0.4272 6.31722 0.354897 8.02358 -90.7459 10.8376 0.361721 -1.52179 -0.834195 0.294379 -1.53623 -23.3642 0.80234 -1.34278 -3.35152 0.802326 -1.34278 99.8185 -44.0018 -86.1213 25.5236 -34.4634 -10.8382 -7.25379 5.61321 -55.5444 -4.95414 0.0678344 -7.88271 -82.4818 -51.1992 89.928 -3.77229 7.24175 -1.97396 0.89879 -5.79045 -60.1357 2.37764 -0.266507 -8.90714 27.3456 0.6626 8.51845 -26.7854 -2.2435 -2.0316 
-62.2732 103.358 37.0922 105.1 49.3797 73.2925 -177.768 35.3514 79.5066 -66.9388 3.58106 1.02225 60.0226 0.167634 -3.7598 43.3472 -1.48666 1.10033 176.733 1.62329 89.1958 -32.9206 -19.8321 -1.35114 47.2265 12.0634 16.0455 16.4824 3.26064 7.05546 0.60482 7.86136 -90.4779 11.1536 0.98182 -1.04557 -0.517396 0.934875 -1.08779 -23.0538 1.25066 -0.702154 -3.04113 1.25066 -0.702162 99.9767 -44.2608 -85.8402 22.844 -42.6597 -11.3513 -12.5776 8.80432 -65.0912 -1.0781 -0.00969673 -9.85388 -81.2349 -46.7534 91.505 -3.49501 -1.47188 6.42251 -1.12599 -6.53767 -66.9653 7.34542 -0.422049 -8.19816 25.5808 0.185754 7.73769 -27.2793 -2.20344 -2.21225 
-51.0352 106.162 26.7815 103.568 45.3947 75.7869 179.636 28.5033 80.4612 -43.1805 3.89289 0.863509 59.7724 -0.56677 -4.66885 44.2521 -1.63669 0.875073 175.995 2.86704 88.1442 -24.0675 -11.635 -0.772792 53.0226 9.66824 15.0354 21.4475 1.96409 2.60718 0.866769 8.00936 -90.6081 10.8628 1.44494 -1.34493 -0.808155 1.38435 -1.40722 -23.3471 1.78232 -0.848457 -3.33447 1.78232 -0.848454 100.035 -43.6722 -85.7701 20.9685 -46.1143 -12.6541 -14.842 11.9561 -72.0964 0.675967 -0.0709675 -8.93056 -80.5305 -45.3759 92.5442 -0.272839 -8.9269 13.1632 -5.00624 -6.58967 -72.2432 13.4194 -0.500775 -7.32737 27.8846 1.53271 8.97037 -29.1606 -1.29836 -3.20583 
-39.8514 101.562 16.6643 103.927 44.3967 77.1839 177.421 25.7911 81.0235 -28.721 5.84908 1.68568 61.2636 -0.433751 -6.01052 40.1811 -1.66515 -1.99851 174.682 2.45218 88.4479 -20.1818 -4.08755 0.4861 52.7089 9.66972 16.12 29.6892 -0.267088 -0.639594 0.882642 8.20742 -90.8075 10.467 1.38788 -1.7279 -1.20448 1.31052 -1.78729 -23.7402 1.84297 -1.23093 -3.72757 1.84297 -1.23095 99.8219 -43.9156 -86.1177 19.8012 -44.7638 -13.3486 -13.7985 13.2823 -76.9495 -1.74592 0.00916993 -8.72702 -79.7964 -44.3324 93.6806 1.22691 -15.0711 15.1297 -5.48384 -4.81121 -78.2015 14.9602 -0.463729 -6.81181 26.0558 1.42 9.09017 -26.9425 -1.41686 -2.91011 
-28.3196 94.4386 6.43709 107.491 47.5446 77.0223 174.679 22.0819 82.2213 -12.9829 8.71227 2.7513 58.4507 -0.667865 -6.57349 41.1487 -1.43393 0.0234301 173.472 -3.03308 90.8017 -37.8952 -7.23672 2.27034 72.9481 -8.50681 -2.53906 45.7711 -3.15439 3.47854 0.602057 8.58092 -91.041 9.71283 0.729366 -2.11465 -1.95971 0.635608 -2.14469 -24.4856 1.33108 -1.79785 -4.473 1.33108 -1.79786 99.7916 -44.6314 -86.126 19.2827 -41.9496 -14.9847 -15.1082 11.084 -74.562 -5.72449 0.0741466 -7.57061 -78.9847 -45.684 95.0332 -0.384353 -17.0226 10.9048 -3.1355 -3.30407 -83.6627 12.2777 -0.457294 -7.23906 24.3906 0.163151 7.6894 -23.1684 -2.28478 -1.70706 
-14.6194 91.4236 -5.02999 100.712 47.4054 82.4782 176.444 25.6242 83.2618 -9.25257 9.20183 1.8123 58.3015 -1.08542 -5.09853 38.8858 -0.702232 3.14816 173.713 -9.14755 93.9767 -38.0339 -6.06116 1.57334 74.2402 -5.38958 4.70764 59.3435 -6.2738 2.94261 0.632632 8.02606 -90.6047 10.8301 0.980335 -1.31041 -0.841181 0.921702 -1.35228 -23.3763 1.32884 -0.955213 -3.3637 1.32886 -0.955218 99.8867 -47.6742 -85.8296 22.4336 -39.8889 -12.1494 -15.5169 3.80229 -58.8347 -7.94183 0.0101736 -5.65726 -79.9797 -50.3544 93.6365 -8.83372 -11.9222 7.39005 -0.460018 -4.33195 -79.195 7.65921 -0.411892 -8.04473 23.1815 -1.16076 2.87222 -23.6836 -2.01028 -0.731728 
-0.871178 88.807 -17.0941 99.0912 43.9397 81.9098 179.177 33.5679 81.2359 -36.9675 9.65991 0.901372 56.6298 -0.896943 3.64825 36.6465 -1.09596 -1.33127 171.531 -8.74316 86.7861 -51.4085 -14.4958 -0.564794 56.1435 7.08436 14.5547 36.9856 -0.272633 7.11628 0.510403 7.94901 -89.7044 10.9736 1.15312 0.478424 -0.696942 1.17305 0.427198 -23.2344 0.956022 0.802884 -3.22178 0.95604 0.802886 100.644 -49.3391 -84.5615 26.9685 -35.9706 -9.37005 -12.464 -8.02586 -39.9817 -6.32628 0.0137811 -5.91863 -82.9668 -55.5016 89.5671 -13.5917 -3.68193 4.68592 -0.11653 -5.62973 -68.1313 5.11823 -0.350904 -8.34606 30.0843 -1.73561 -1.00976 -28.6837 -1.30436 0.247303 
11.632 87.7866 -27.584 104.114 45.2244 76.7744 -177.781 27.4811 77.7265 -54.1294 14.6414 -0.00858917 67.1081 10.5911 14.5448 33.5966 -0.739817 -1.72736 171.782 3.03354 84.1534 -82.8451 -19.3274 -2.25838 51.9375 5.552 5.42227 28.5563 -0.79982 -4.92225 -0.191912 8.52927 -89.1964 9.8104 -0.0182376 1.59223 -1.86156 0.0518422 1.59149 -24.3893 -0.495877 1.51318 -4.37662 -0.495861 1.51318 100.611 -49.3442 -84.6133 26.4205 -25.4286 -6.20147 -6.30871 -9.35446 -28.3513 -4.64427 -0.107586 -3.23643 -86.0306 -55.9826 85.2685 -16.291 7.98616 -7.20124 2.42112 -4.52025 -59.5795 2.05846 -0.326048 -10.2439 35.9426 -1.18654 -2.10829 -26.6136 -0.60642 2.20913 
22.4574 93.1043 -37.9811 104.191 47.1808 78.9718 -177.936 15.1523 82.3076 -49.6139 15.0437 1.36343 68.4007 7.24963 6.4844 36.3468 -1.10213 -1.725 172.046 21.3688 88.1371 -90.2181 -16.2143 -2.06238 56.5316 3.71048 7.88471 32.4472 -1.93104 -5.28226 -0.637098 8.37636 -89.4778 10.1349 -1.03135 1.12202 -1.5361 -0.980959 1.16632 -24.0733 -1.32092 0.76017 -4.06069 -1.32092 0.760176 100.749 -47.6171 -84.4458 24.2706 -14.9268 -2.21846 -1.28957 -8.24109 -15.8379 -8.9445 -0.357088 -0.503931 -86.72 -55.3209 84.2024 -13.106 22.1093 -18.6489 5.85649 -2.45907 -59.9959 -1.92338 -0.101392 -9.73827 34.7825 0.597637 -0.369583 -27.7692 0.480603 1.31656 
33.1612 100.302 -48.0211 107.18 53.0255 79.6799 -178.865 8.05428 88.3639 -44.9778 10.8951 3.59779 46.85 -7.8078 -6.84671 26.4075 0.163876 -2.06042 171.239 26.2171 90.0729 -73.3806 -10.121 0.270599 64.3757 2.18227 11.2677 37.9264 -3.63458 -5.66888 -0.978044 8.19277 -89.9756 10.4911 -1.93689 0.222192 -1.17846 -1.92523 0.307254 -23.7249 -1.9141 -0.37041 -3.7122 -1.91409 -0.370419 101.31 -45.9561 -83.57 20.6531 -12.2374 4.74661 1.33664 -3.99631 -8.86151 -6.89796 -0.283529 -0.471563 -85.9699 -53.7685 85.0641 -6.69841 35.0338 -29.4573 7.01949 -4.10486 -66.3908 -2.19397 -0.0960935 -9.38397 25.5884 -0.631759 -2.22831 -26.397 -0.0875743 1.30741 
43.4777 103.55 -57.7459 110.038 56.9541 78.1587 179.473 4.07687 88.5107 -33.5023 10.9967 5.34024 48.7016 -6.90171 -7.56575 26.3354 0.0549389 -5.16676 175.248 24.0892 90.9379 -48.1273 -6.1688 0.742182 66.6959 2.12938 12.6208 38.2845 -3.41843 -4.41973 -1.02253 8.18555 -90.0223 10.5054 -2.04692 0.137989 -1.164 -2.03887 0.227979 -23.7116 -1.99374 -0.483826 -3.69898 -1.99372 -0.483829 102.009 -43.7611 -82.4269 20.6731 -13.7723 12.6138 1.95175 -5.23689 -7.80537 -5.9 -0.236118 -0.568547 -85.9486 -51.9813 84.8497 3.4623 43.1664 -37.5514 4.9855 -11.7987 -81.7269 -3.6798 -0.0308124 -9.59926 21.3085 -2.59537 -4.33553 -26.0748 -1.10476 0.0550919 
52.848 99.9241 -66.6267 112.71 60.2516 74.3537 178.675 4.34863 85.3375 -28.7408 19.592 5.52803 58.2296 -1.38758 -2.40291 29.7337 -0.352981 -3.0267 177 21.7411 88.072 -24.0591 -5.09756 0.39884 63.1464 6.00369 17.7536 33.8616 -1.66341 -2.14792 -0.99592 8.46282 -89.8362 9.95198 -1.91064 0.479119 -1.71769 -1.88769 0.562766 -24.264 -1.96626 -0.117473 -4.25139 -1.96626 -0.117479 101.785 -42.6233 -82.8147 20.8407 -11.1097 19.651 1.37899 -4.8443 -7.81267 -6.65365 -0.269981 -0.43662 -85.8924 -48.17 84.3874 7.65096 40.9385 -42.6801 7.37725 -15.1933 -95.3816 -6.0157 0.0951757 -10.1195 21.8082 -4.69149 -5.35316 -24.6515 -2.68389 -0.473199 
62.2213 93.2644 -75.4259 117.362 59.5401 66.4222 178.148 0.98414 80.4027 -44.622 16.9958 4.69651 75.6529 17.6754 12.4713 41.3927 -1.34172 -0.0428438 177.556 22.7807 83.9273 -13.3531 -2.61656 -0.927328 61.376 5.95198 14.4793 34.9161 -1.9125 -1.96481 -0.971892 8.97431 -89.5268 8.9408 -1.72759 1.05085 -2.72944 -1.67969 1.12589 -25.2734 -1.96357 0.482914 -5.26079 -1.96357 0.482915 101.989 -43.1208 -82.4664 18.0477 -7.59887 19.3174 1.07281 -3.35079 -6.44723 -10.1231 -0.564057 1.02935 -85.67 -48.8741 84.834 5.22592 34.4714 -39.2273 8.06532 -14.3315 -96.7405 -2.92526 -0.0784948 -9.96322 20.4017 -4.90538 -5.24645 -19.9248 -3.18863 0.698541 
